Coordinates
version=1
nRows=6
nColumns=63
inDegrees=yes

Units are S.I. units (second, meters, Newtons, ...)
If the header above contains a line with 'inDegrees', this indicates whether rotational values are in degrees (yes) or radians (no).

endheader
time	pelvis_tilt	pelvis_list	pelvis_rotation	pelvis_tx	pelvis_ty	pelvis_tz	hip_flexion_r	hip_adduction_r	hip_rotation_r	knee_angle_r	knee_angle_r_beta	ankle_angle_r	subtalar_angle_r	mtp_angle_r	hip_flexion_l	hip_adduction_l	hip_rotation_l	knee_angle_l	knee_angle_l_beta	ankle_angle_l	subtalar_angle_l	mtp_angle_l	L5_S1_Flex_Ext	L5_S1_Lat_Bending	L5_S1_axial_rotation	L4_L5_Flex_Ext	L4_L5_Lat_Bending	L4_L5_axial_rotation	L3_L4_Flex_Ext	L3_L4_Lat_Bending	L3_L4_axial_rotation	L2_L3_Flex_Ext	L2_L3_Lat_Bending	L2_L3_axial_rotation	L1_L2_Flex_Ext	L1_L2_Lat_Bending	L1_L2_axial_rotation	L1_T12_Flex_Ext	L1_T12_Lat_Bending	L1_T12_axial_rotation	Abs_r3	Abs_r2	Abs_r1	Abs_t1	Abs_t2	neck_flexion	neck_bending	neck_rotation	arm_flex_r	arm_add_r	arm_rot_r	elbow_flex_r	pro_sup_r	wrist_flex_r	wrist_dev_r	arm_flex_l	arm_add_l	arm_rot_l	elbow_flex_l	pro_sup_l	wrist_flex_l	wrist_dev_l
2.163636	-0.782625	-0.361421	85.064492	0.318448	0.791132	0.652520	-1.827153	1.260672	7.363847	9.280041	0.161967	18.174053	-10.704032	0.000000	-2.875961	-4.557205	-13.337671	9.093593	0.158713	21.733133	13.744908	0.000000	0.071868	-0.099872	2.688336	0.133466	-0.132830	2.856357	0.118072	-0.242829	2.856357	0.082138	-0.242829	2.352294	0.066737	-0.203659	2.184273	0.041065	-0.154702	2.016252	0.513345	-1.129774	14.951720	0.000000	0.000000	15.859288	1.334894	-24.676691	53.181066	-40.801293	10.137545	144.351436	68.614646	29.378427	18.945324	21.679765	-9.859363	29.959039	136.446541	72.942225	1.436694	-11.437989
2.181818	-0.767292	-0.390906	84.349176	0.319524	0.791188	0.652586	-1.833385	1.274800	8.195376	9.157965	0.159837	17.695867	-10.842663	0.000000	-2.892111	-4.581863	-14.236201	9.218622	0.160895	21.956715	14.029622	0.000000	0.064445	-0.087993	2.790065	0.119680	-0.117030	2.964444	0.105876	-0.213946	2.964444	0.073654	-0.213946	2.441307	0.059843	-0.179435	2.266928	0.036824	-0.136301	2.092548	0.460322	-0.995392	15.517502	0.000000	0.000000	16.570892	1.418636	-24.556818	53.287259	-39.716722	8.611090	144.384781	68.890310	30.020761	18.053573	21.528878	-9.918678	30.115557	136.584017	71.246713	0.644486	-11.041141
2.200000	-0.762188	-0.412906	83.696211	0.320535	0.791244	0.652622	-1.880015	1.269233	8.936683	8.985769	0.156831	17.290911	-10.907283	0.000000	-2.899645	-4.591624	-14.968398	9.369500	0.163529	22.149817	14.202588	0.000000	0.058514	-0.075906	2.874621	0.108666	-0.100954	3.054285	0.096133	-0.184557	3.054285	0.066876	-0.184557	2.515294	0.054336	-0.154787	2.335630	0.033435	-0.117578	2.155966	0.417959	-0.858659	15.987782	0.000000	0.000000	17.346955	1.526628	-24.251283	53.491191	-38.652581	7.370006	144.308056	69.442003	29.974215	17.275225	21.410902	-9.961840	30.253968	136.711963	69.534032	-0.309912	-10.441466
2.218182	-0.769545	-0.404470	83.067534	0.321526	0.791316	0.652644	-1.979290	1.236883	9.597821	8.781373	0.153264	16.989505	-10.878995	0.000000	-2.932015	-4.588730	-15.689248	9.537408	0.166459	22.324293	14.399219	0.000000	0.051751	-0.065909	2.967820	0.096107	-0.087658	3.153308	0.085022	-0.160250	3.153308	0.059146	-0.160250	2.596842	0.048056	-0.134401	2.411353	0.029570	-0.102092	2.225865	0.369652	-0.745572	16.506122	0.000000	0.000000	18.099582	1.592158	-24.066151	53.620255	-37.730612	6.194178	144.125548	70.157675	29.689541	16.632596	21.413837	-9.954051	30.477492	136.747277	67.019005	-0.920110	-9.731432
2.236364	-0.770835	-0.358864	82.513991	0.322418	0.791409	0.652647	-2.138702	1.198573	10.122227	8.552686	0.149273	16.779466	-10.765363	0.000000	-2.987134	-4.584278	-16.254398	9.717637	0.169605	22.470501	14.468971	0.000000	0.044623	-0.053993	3.054630	0.082870	-0.071811	3.245544	0.073311	-0.131279	3.245544	0.051000	-0.131279	2.672801	0.041437	-0.110103	2.481887	0.025498	-0.083635	2.290972	0.318738	-0.610780	16.988933	0.000000	0.000000	18.767128	1.611170	-23.839129	53.764169	-36.954517	5.221761	143.781755	71.151223	29.289962	16.078137	21.491742	-9.897294	30.674230	136.733245	64.562173	-1.327950	-9.044385
2.254545	-0.785347	-0.277291	82.107672	0.323175	0.791526	0.652632	-2.356022	1.144431	10.443570	8.311003	0.145054	16.657005	-10.578874	0.000000	-3.048908	-4.564593	-16.584514	9.911368	0.172986	22.573844	14.406675	0.000000	0.037816	-0.043990	3.123545	0.070228	-0.058507	3.318767	0.062128	-0.106957	3.318767	0.043220	-0.106957	2.733102	0.035116	-0.089704	2.537880	0.021608	-0.068141	2.342659	0.270115	-0.497624	17.372220	0.000000	0.000000	19.282068	1.608558	-23.640222	53.879130	-36.351493	4.458178	143.270980	72.418044	28.781257	15.640101	21.653805	-9.815257	30.803011	136.696990	62.519353	-1.578024	-8.388053
